# xmcd
#
# Track frame offsets:
#	150
#	11417
#	32962
#	48297
#	67375
#	89972
#	109967
#	130387
#	149257
#	167795
#	189885
#	209522
#	231895
#	239980
#	251275
#	269415
#	281055
#	298830
#	312345
#
# Disc length: 4387 seconds
#
# Revision: 1
# Processed by: cddbd v1.4PL0 Copyright (c) Steve Scherf et al.
# Submitted via: audiograbber 1.81.02
#
DISCID=37112113
DTITLE=Various Artist - Biddle Street Barrelhousin'
DYEAR=2000
DGENRE=Blues
TTITLE0=Oh, Red! - Speckled Red
TTITLE1=Dad's Piece - Speckled Red
TTITLE2=Goin' Down Slow - Speckled Red
TTITLE3=21st Street Stomp - Henry Brown
TTITLE4=Levee Blues - James Crutchfield
TTITLE5=Blow North Wind - James Crutchfield
TTITLE6=How Long Blues - James Crutchfield
TTITLE7=Milk Cow Blues - Speckled Red
TTITLE8=Black Gal - Speckled Red
TTITLE9=Black Gal - James Crutchfield
TTITLE10=Ora-Nelle Blues - James Crutchfield
TTITLE11=Pearly Mae Blues - James Crutchfield
TTITLE12=Snitcher's Blues - James Johnson Stump
TTITLE13=Blues For Lindy - James Johnson Stump
TTITLE14=St Louis Blues - Lawrence Henry
TTITLE15=Memphis Blues - Lawrence Henry
TTITLE16=Goin' Down To Becky Thatcher - Henry Brown
TTITLE17=All On Account Of You - Speckled Red
TTITLE18=Wilkins Street Stomp - Speckled Red
EXTD=Delmark Records 739  © 2000
EXTT0=
EXTT1=
EXTT2=
EXTT3=
EXTT4=
EXTT5=
EXTT6=
EXTT7=
EXTT8=
EXTT9=
EXTT10=
EXTT11=
EXTT12=
EXTT13=
EXTT14=
EXTT15=
EXTT16=
EXTT17=
EXTT18=
PLAYORDER=
